<svg xmlns="http://www.w3.org/2000/svg" viewBox="0 0 64 64">
  <!-- Cauldron body -->
  <path d="M10 32c0 17 9 26 22 26s22-9 22-26H10z" fill="#3d4f63" opacity="0.9"/>
  <!-- Cauldron rim -->
  <ellipse cx="32" cy="32" rx="23" ry="5.5" fill="#4a6591"/>
  <!-- Handle left -->
  <path d="M9 32c-5 0-8-4-8-8s3-8 8-8" stroke="#4a6591" stroke-width="3.5" fill="none" stroke-linecap="round"/>
  <!-- Handle right -->
  <path d="M55 32c5 0 8-4 8-8s-3-8-8-8" stroke="#4a6591" stroke-width="3.5" fill="none" stroke-linecap="round"/>
  <!-- Bubble 1 -->
  <circle cx="24" cy="19" r="4.5" fill="#6b9fd4" opacity="0.7"/>
  <!-- Bubble 2 -->
  <circle cx="38" cy="12" r="5.5" fill="#4a8ec2" opacity="0.6"/>
  <!-- Bubble 3 -->
  <circle cx="29" cy="5" r="3" fill="#88c0e8" opacity="0.55"/>
  <!-- Sparkle -->
  <path d="M46 9l2-4 2 4 4 2-4 2-2 4-2-4-4-2z" fill="#e8b84a" opacity="0.8"/>
  <!-- Small sparkle -->
  <path d="M18 10l1-2 1 2 2 1-2 1-1 2-1-2-2-1z" fill="#e8b84a" opacity="0.6"/>
</svg>
